<?xml version="1.0" standalone="no"?>
<!DOCTYPE svg PUBLIC "-//W3C//DTD SVG 20010904//EN"
 "http://www.w3.org/TR/2001/REC-SVG-20010904/DTD/svg10.dtd">
<svg version="1.0" xmlns="http://www.w3.org/2000/svg"
 width="365.000000pt" height="128.000000pt" viewBox="0 0 365.000000 128.000000"
 preserveAspectRatio="xMidYMid meet">

<g transform="translate(0.000000,128.000000) scale(0.100000,-0.100000)"
fill="#000000" stroke="none">
<path d="M0 640 l0 -640 1825 0 1825 0 0 640 0 640 -1825 0 -1825 0 0 -640z
m1230 355 l0 -35 -60 0 -61 0 3 -57 3 -58 48 -3 c45 -3 47 -5 47 -33 0 -28 -1
-29 -50 -29 l-50 0 0 -65 0 -65 60 0 60 0 0 -35 0 -35 -95 0 -95 0 0 225 0
225 95 0 95 0 0 -35z m220 10 c15 -16 24 -41 28 -75 l5 -50 -36 0 c-34 0 -36
2 -39 36 -4 44 -28 65 -52 45 -13 -11 -16 -38 -16 -157 0 -127 2 -144 18 -153
31 -17 52 5 52 54 0 45 0 45 35 45 35 0 35 0 35 -46 0 -80 -38 -123 -108 -124
-35 0 -49 6 -73 29 l-29 29 0 162 c0 207 10 229 106 230 41 0 55 -5 74 -25z
m232 14 c37 -20 48 -69 48 -212 0 -74 -5 -148 -11 -165 -14 -41 -49 -62 -102
-62 -84 0 -107 50 -107 230 0 130 11 183 43 205 25 17 99 20 129 4z m214 -114
l32 -120 1 123 1 122 35 0 35 0 -2 -222 -3 -223 -36 -3 -36 -3 -39 147 -39
147 -5 -144 -5 -144 -32 -3 -33 -3 0 226 0 226 47 -3 46 -3 33 -120z m315 112
c34 -26 39 -55 39 -217 l0 -162 -29 -29 c-42 -42 -110 -42 -152 0 l-29 29 0
165 c0 163 0 166 26 196 23 27 32 31 77 31 29 0 59 -6 68 -13z m209 -139 l24
-153 17 105 c9 58 19 126 23 153 l7 47 50 0 49 0 0 -225 0 -225 -35 0 -35 0
-1 128 c0 70 -2 123 -4 117 -2 -5 -11 -63 -21 -127 l-17 -118 -33 0 c-29 0
-34 4 -39 33 -3 17 -14 79 -24 137 l-19 105 -1 -138 -1 -138 -32 3 -33 3 -3
223 -2 222 53 0 54 0 23 -152z m290 -73 l0 -225 -35 0 -35 0 0 225 0 225 35 0
35 0 0 -225z m217 210 c22 -16 43 -70 43 -112 0 -20 -5 -23 -35 -23 -33 0 -35
2 -35 34 0 39 -20 60 -50 51 -19 -6 -20 -14 -20 -155 0 -137 2 -150 19 -160
28 -15 51 12 51 61 0 38 1 39 35 39 32 0 35 -3 35 -29 0 -94 -37 -141 -110
-141 -42 0 -52 4 -74 31 -26 30 -26 32 -26 198 0 165 1 169 25 195 20 21 33
26 72 26 27 0 58 -7 70 -15z m254 -15 c9 -14 20 -40 24 -57 6 -32 6 -33 -29
-33 -28 0 -35 4 -38 21 -4 31 -32 46 -52 30 -30 -25 -18 -58 43 -126 66 -73
86 -118 76 -172 -15 -82 -116 -113 -176 -54 -23 23 -29 39 -29 70 0 40 1 41
35 41 33 0 35 -2 35 -35 0 -32 2 -35 30 -35 28 0 30 2 30 38 0 32 -7 45 -50
87 -58 57 -80 99 -80 150 0 74 33 106 109 102 45 -2 57 -6 72 -27z m-2652
-114 l124 -63 -129 -67 -129 -67 -112 55 -113 56 0 -49 c0 -28 -4 -53 -10 -56
-6 -4 -10 20 -10 64 l0 69 113 60 c61 33 119 61 127 61 8 0 71 -28 139 -63z
m-242 -236 c41 -32 99 -43 152 -30 70 17 91 35 91 75 0 19 5 35 10 35 6 0 10
-8 10 -17 0 -11 17 -26 45 -39 44 -20 45 -20 75 -1 38 24 133 20 174 -6 l26
-17 0 -146 0 -145 -31 23 c-42 32 -132 32 -174 2 l-29 -22 -27 20 c-44 33
-110 35 -163 5 l-46 -26 0 118 0 118 -40 6 c-22 3 -55 15 -75 27 -32 20 -35
26 -33 63 1 37 2 38 5 10 3 -20 14 -41 30 -53z m837 -166 c19 -18 21 -65 4
-82 -9 -9 -9 -12 0 -12 8 0 12 -17 12 -45 0 -40 -3 -47 -27 -56 -15 -5 -38 -8
-50 -4 -22 5 -23 9 -23 110 l0 105 34 0 c19 0 42 -7 50 -16z m440 0 c18 -18
22 -79 5 -90 -8 -4 -8 -9 0 -17 17 -17 14 -97 -3 -97 -17 0 -26 22 -26 61 0
45 -18 34 -22 -13 -2 -31 -8 -44 -20 -46 -16 -3 -18 7 -18 107 l0 111 34 0
c19 0 42 -7 50 -16z m246 14 c0 -2 7 -41 15 -88 19 -108 19 -130 0 -130 -8 0
-15 7 -15 15 0 28 -31 30 -51 4 -28 -37 -34 -16 -20 74 19 123 20 127 47 127
13 0 24 -1 24 -2z m280 -18 c0 -13 -7 -20 -20 -20 -19 0 -20 -7 -20 -90 0 -73
-3 -90 -15 -90 -12 0 -15 17 -15 90 0 72 -3 90 -14 90 -8 0 -18 5 -21 10 -12
20 7 30 56 30 42 0 49 -3 49 -20z m180 -90 c0 -91 -3 -110 -15 -110 -12 0 -15
19 -15 110 0 91 3 110 15 110 12 0 15 -19 15 -110z m244 94 c12 -11 16 -36 16
-93 0 -66 -3 -81 -20 -96 -16 -15 -26 -17 -48 -9 -26 9 -27 12 -30 98 -2 56 1
93 9 102 15 19 54 18 73 -2z m227 -39 l17 -50 1 53 c1 39 5 52 16 52 12 0 15
-19 15 -111 0 -99 -2 -110 -17 -107 -11 2 -23 23 -34 58 l-17 55 -4 -55 c-2
-41 -7 -55 -18 -55 -12 0 -16 20 -18 108 -3 107 -2 108 19 105 17 -2 27 -16
40 -53z m284 33 c12 -57 25 -144 25 -170 0 -32 -19 -38 -27 -8 -3 11 -14 20
-25 20 -11 0 -22 -9 -25 -20 -3 -11 -12 -20 -21 -20 -16 0 -15 21 9 158 10 56
13 62 35 62 16 0 25 -7 29 -22z m215 -68 c0 -89 0 -90 25 -90 19 0 25 -5 25
-21 0 -18 -5 -20 -42 -17 l-43 3 -3 94 c-3 104 0 121 23 121 12 0 15 -16 15
-90z"/>
<path d="M1597 963 c-4 -3 -7 -73 -7 -154 0 -133 2 -149 18 -158 39 -21 47 0
50 143 2 86 -1 142 -8 155 -10 20 -40 28 -53 14z"/>
<path d="M2122 958 c-8 -8 -12 -57 -12 -155 0 -124 2 -143 17 -152 11 -6 24
-6 35 0 16 9 18 26 18 152 0 141 -6 167 -35 167 -6 0 -16 -5 -23 -12z"/>
<path d="M290 880 l-95 -49 98 0 c57 -1 97 -5 97 -11 0 -6 -40 -10 -97 -11
l-98 0 97 -50 98 -49 112 56 113 56 -105 54 c-58 29 -109 53 -115 53 -5 0 -53
-22 -105 -49z"/>
<path d="M706 670 c-61 -19 -66 -32 -66 -158 0 -105 1 -114 18 -107 68 28 117
28 185 0 16 -7 17 1 15 110 -3 113 -4 119 -28 137 -31 22 -85 30 -124 18z
m100 -35 c20 -8 33 -19 29 -25 -4 -7 -14 -5 -28 5 -12 8 -37 15 -57 15 -20 0
-45 -7 -57 -15 -13 -9 -24 -11 -28 -6 -8 14 44 40 78 41 15 0 44 -7 63 -15z
m15 -45 c30 -24 21 -25 -25 -3 -36 17 -35 17 -126 -13 -8 -3 -4 4 9 15 32 28
109 29 142 1z m-15 -25 c20 -8 33 -19 29 -25 -4 -7 -14 -5 -28 5 -27 19 -86
19 -113 0 -12 -8 -24 -11 -28 -8 -10 11 47 43 77 43 15 0 44 -7 63 -15z m15
-46 c26 -22 26 -22 -43 3 -19 7 -37 7 -55 0 -70 -25 -70 -25 -44 -3 17 15 37
21 71 21 34 0 54 -6 71 -21z m-15 -24 c20 -8 33 -19 29 -25 -4 -7 -14 -5 -28
5 -12 8 -37 15 -57 15 -20 0 -45 -7 -57 -15 -12 -8 -24 -11 -27 -6 -7 11 52
40 82 41 12 0 39 -7 58 -15z m15 -46 c26 -22 26 -22 -43 3 -19 7 -37 7 -55 0
-70 -25 -70 -25 -44 -3 17 15 37 21 71 21 34 0 54 -6 71 -21z"/>
<path d="M550 655 c0 -8 6 -15 13 -15 18 0 53 -27 46 -34 -4 -4 -20 1 -36 10
-21 13 -37 15 -59 9 l-29 -9 35 -3 c43 -4 90 -22 90 -34 0 -12 -11 -11 -40 6
-32 18 -58 18 -94 0 -35 -19 -40 -19 -32 0 3 9 0 15 -9 15 -12 0 -15 -19 -15
-100 0 -55 2 -100 4 -100 2 0 21 7 42 16 43 18 104 13 142 -12 l22 -14 0 123
0 123 -29 17 c-36 21 -51 22 -51 2z m30 -90 c17 -9 30 -20 30 -25 0 -14 -7
-13 -36 6 -17 12 -37 15 -65 11 -62 -8 -70 -25 -10 -19 50 4 111 -11 111 -29
0 -12 -11 -11 -40 6 -32 18 -58 18 -94 0 -36 -19 -35 -20 -33 12 4 48 78 69
137 38z m-5 -69 c19 -8 35 -20 35 -25 0 -15 -6 -14 -36 5 -17 12 -37 15 -65
11 -65 -9 -68 -24 -4 -19 41 3 61 0 81 -13 34 -22 24 -31 -15 -11 -37 20 -58
20 -95 1 -36 -19 -35 -20 -33 12 4 48 66 66 132 39z"/>
<path d="M1080 435 c0 -14 5 -25 10 -25 6 0 10 11 10 25 0 14 -4 25 -10 25 -5
0 -10 -11 -10 -25z"/>
<path d="M1080 350 c0 -21 4 -30 13 -27 6 2 12 14 12 27 0 13 -6 25 -12 28 -9
2 -13 -7 -13 -28z"/>
<path d="M1520 430 c0 -16 5 -30 10 -30 6 0 10 14 10 30 0 17 -4 30 -10 30 -5
0 -10 -13 -10 -30z"/>
<path d="M1780 419 c0 -13 -3 -34 -6 -46 -5 -17 -2 -23 10 -23 13 0 15 7 10
43 -8 49 -14 61 -14 26z"/>
<path d="M2460 390 c0 -56 3 -70 15 -70 12 0 15 14 15 70 0 56 -3 70 -15 70
-12 0 -15 -14 -15 -70z"/>
<path d="M2991 413 c0 -17 -4 -38 -7 -47 -4 -11 -1 -16 10 -16 17 0 19 16 6
65 l-8 30 -1 -32z"/>
</g>
</svg>
